<svg id="Layer_1_copy" data-name="Layer 1 copy" xmlns="http://www.w3.org/2000/svg" viewBox="0 0 650.16 587.61"><defs><style>.cls-1{fill:#c42032;}.cls-2{fill:#f65097;}.cls-3{fill:#fb7598;}.cls-4{fill:#e3d454;}.cls-5{fill:#2e2a25;}.cls-6{fill:#42738d;}.cls-7{fill:#00b3e3;}.cls-8{fill:#877874;}.cls-9{fill:#67baaf;}.cls-10{fill:#b0851e;}.cls-11{fill:#dce442;}.cls-12{fill:#95d600;}.cls-13{fill:#3cd52e;}.cls-14{fill:#77777a;}.cls-15{fill:#ffe900;}.cls-16{fill:#d9c822;}.cls-17{fill:#7c6755;}.cls-18{fill:#231f20;}</style></defs><title>Advanced Collaboration Icon 2020</title><path class="cls-1" d="M87.93,200l-2-6.6H75.81l-2,6.6H67.47l9.79-27.84h7.19L94.27,200Zm-3.41-11.53q-2.79-9-3.14-10.15t-.5-1.86q-.63,2.43-3.58,12Z" transform="translate(-33.97 -67.33)"/><path class="cls-1" d="M120.76,185.91q0,6.85-3.9,10.49T105.61,200H97.76V172.31h8.7q6.79,0,10.54,3.58T120.76,185.91Zm-6.11.15q0-8.93-7.89-8.93h-3.13v18.05h2.52Q114.65,195.18,114.65,186.06Z" transform="translate(-33.97 -67.33)"/><path class="cls-1" d="M142.32,172.31h5.94L138.83,200h-6.41L123,172.31H129l5.22,16.5q.44,1.46.9,3.4t.58,2.7a48.6,48.6,0,0,1,1.42-6.11Z" transform="translate(-33.97 -67.33)"/><path class="cls-1" d="M168.72,200l-2-6.6H156.6l-2,6.6h-6.33L158,172.2h7.19L175.05,200Zm-3.41-11.53q-2.79-9-3.14-10.15t-.5-1.86q-.63,2.43-3.58,12Z" transform="translate(-33.97 -67.33)"/><path class="cls-1" d="M203.14,200h-7.47l-12.06-21h-.17q.36,5.56.36,7.93v13h-5.25V172.31H186l12,20.77h.13q-.28-5.4-.28-7.64V172.31h5.29Z" transform="translate(-33.97 -67.33)"/><path class="cls-1" d="M221.89,176.81a6,6,0,0,0-5.14,2.49,11.6,11.6,0,0,0-1.82,7q0,9.27,7,9.27a22,22,0,0,0,7.07-1.46V199a19.64,19.64,0,0,1-7.62,1.42q-6,0-9.25-3.67t-3.2-10.53a17.2,17.2,0,0,1,1.57-7.58,11.38,11.38,0,0,1,4.52-5,13.38,13.38,0,0,1,6.91-1.74,18.65,18.65,0,0,1,8.12,2l-1.9,4.78a31.37,31.37,0,0,0-3.13-1.29A9.33,9.33,0,0,0,221.89,176.81Z" transform="translate(-33.97 -67.33)"/><path class="cls-1" d="M250.83,200h-16V172.31h16v4.82H240.74v6.09h9.39V188h-9.39v7.15h10.09Z" transform="translate(-33.97 -67.33)"/><path class="cls-1" d="M279.62,185.91q0,6.85-3.9,10.49T264.47,200h-7.85V172.31h8.7q6.79,0,10.54,3.58T279.62,185.91Zm-6.11.15q0-8.93-7.89-8.93h-3.13v18.05H265Q273.51,195.18,273.51,186.06Z" transform="translate(-33.97 -67.33)"/><path class="cls-1" d="M307.23,176.81a6,6,0,0,0-5.14,2.49,11.6,11.6,0,0,0-1.82,7q0,9.27,7,9.27a22,22,0,0,0,7.07-1.46V199a19.64,19.64,0,0,1-7.62,1.42q-6,0-9.25-3.67t-3.2-10.53a17.2,17.2,0,0,1,1.57-7.58,11.38,11.38,0,0,1,4.52-5,13.38,13.38,0,0,1,6.91-1.74,18.65,18.65,0,0,1,8.12,2l-1.9,4.78a31.37,31.37,0,0,0-3.13-1.29A9.33,9.33,0,0,0,307.23,176.81Z" transform="translate(-33.97 -67.33)"/><path class="cls-1" d="M345.37,186.14q0,6.88-3.41,10.58t-9.79,3.7q-6.37,0-9.79-3.7T319,186.1q0-6.92,3.42-10.57t9.81-3.65q6.39,0,9.78,3.68T345.37,186.14Zm-20.23,0q0,4.65,1.76,7a6.17,6.17,0,0,0,5.27,2.35q7,0,7-9.35t-7-9.37a6.21,6.21,0,0,0-5.29,2.36Q325.13,181.49,325.13,186.14Z" transform="translate(-33.97 -67.33)"/><path class="cls-1" d="M351.11,200V172.31H357v22.87h11.25V200Z" transform="translate(-33.97 -67.33)"/><path class="cls-1" d="M373.05,200V172.31h5.88v22.87h11.25V200Z" transform="translate(-33.97 -67.33)"/><path class="cls-1" d="M412,200l-2-6.6H399.85l-2,6.6h-6.33l9.79-27.84h7.19L418.3,200Zm-3.41-11.53q-2.79-9-3.14-10.15t-.5-1.86q-.63,2.43-3.58,12Z" transform="translate(-33.97 -67.33)"/><path class="cls-1" d="M421.79,172.31h8.63q5.9,0,8.56,1.68a5.84,5.84,0,0,1,2.67,5.34,6.73,6.73,0,0,1-1.17,4.08,4.66,4.66,0,0,1-3.1,1.92v.19a6.11,6.11,0,0,1,3.8,2.2,7.16,7.16,0,0,1,1.17,4.29,7.06,7.06,0,0,1-2.74,5.92,11.85,11.85,0,0,1-7.44,2.12H421.79Zm5.88,11h3.41a6.24,6.24,0,0,0,3.46-.74,2.76,2.76,0,0,0,1.07-2.45,2.45,2.45,0,0,0-1.17-2.29,7.5,7.5,0,0,0-3.69-.69h-3.09Zm0,4.67v7.23h3.83a5.68,5.68,0,0,0,3.58-.93,3.43,3.43,0,0,0,1.16-2.84q0-3.45-4.93-3.45Z" transform="translate(-33.97 -67.33)"/><path class="cls-1" d="M473.05,186.14q0,6.88-3.41,10.58t-9.79,3.7q-6.37,0-9.79-3.7t-3.41-10.62q0-6.92,3.42-10.57t9.81-3.65q6.39,0,9.78,3.68T473.05,186.14Zm-20.23,0q0,4.65,1.76,7a6.17,6.17,0,0,0,5.27,2.35q7,0,7-9.35t-7-9.37a6.21,6.21,0,0,0-5.29,2.36Q452.82,181.49,452.82,186.14Z" transform="translate(-33.97 -67.33)"/><path class="cls-1" d="M484.68,189.4V200H478.8V172.31h8.08q5.65,0,8.36,2.06t2.71,6.25a7.36,7.36,0,0,1-1.35,4.35,8.92,8.92,0,0,1-3.81,3q6.26,9.35,8.15,12.08h-6.52l-6.62-10.64Zm0-4.78h1.9a7.26,7.26,0,0,0,4.12-.93,3.32,3.32,0,0,0,1.33-2.92,3,3,0,0,0-1.36-2.81,8.23,8.23,0,0,0-4.2-.83h-1.78Z" transform="translate(-33.97 -67.33)"/><path class="cls-1" d="M521.41,200l-2-6.6H509.29l-2,6.6h-6.33l9.79-27.84h7.19L527.74,200ZM518,188.51q-2.79-9-3.14-10.15t-.5-1.86q-.63,2.43-3.58,12Z" transform="translate(-33.97 -67.33)"/><path class="cls-1" d="M541.93,200H536V177.21h-7.53v-4.89h20.94v4.89h-7.53Z" transform="translate(-33.97 -67.33)"/><path class="cls-1" d="M553.72,200V172.31h5.88V200Z" transform="translate(-33.97 -67.33)"/><path class="cls-1" d="M591.75,186.14q0,6.88-3.41,10.58t-9.79,3.7q-6.37,0-9.79-3.7t-3.41-10.62q0-6.92,3.42-10.57t9.81-3.65q6.39,0,9.78,3.68T591.75,186.14Zm-20.23,0q0,4.65,1.76,7a6.17,6.17,0,0,0,5.27,2.35q7,0,7-9.35t-7-9.37a6.21,6.21,0,0,0-5.29,2.36Q571.51,181.49,571.51,186.14Z" transform="translate(-33.97 -67.33)"/><path class="cls-1" d="M622.09,200h-7.47l-12.06-21h-.17q.36,5.56.36,7.93v13h-5.25V172.31h7.42l12,20.77h.13q-.28-5.4-.28-7.64V172.31h5.29Z" transform="translate(-33.97 -67.33)"/><polygon class="cls-2" points="237.99 212.08 249.31 191.26 152.23 191.26 163.55 212.09 237.99 212.08"/><polygon class="cls-3" points="163.55 212.09 200.77 280.56 237.99 212.08 163.55 212.09"/><polygon class="cls-4" points="248.46 311.62 298.44 311.62 223.04 450.33 198.14 404.23 248.46 311.62"/><polygon class="cls-5" points="173.15 450.2 198.14 404.23 223.04 450.33 173.15 450.2"/><polygon class="cls-6" points="223.04 450.33 336.75 450.33 313.4 407.38 350.1 407.38 298.44 311.62 223.04 450.33"/><polygon class="cls-7" points="336.75 450.33 355.01 483.93 298.17 587.61 223.04 450.33 336.75 450.33"/><polygon class="cls-8" points="336.75 450.33 355.01 483.93 373.38 450.2 336.75 450.33"/><polygon class="cls-8" points="350.1 407.38 396.15 407.38 373.14 450.21 350.1 407.38"/><polygon class="cls-1" points="355.01 483.93 382.25 534.05 436.6 433.72 422.29 407.38 396.15 407.38 355.01 483.93"/><polygon class="cls-7" points="298.44 311.62 350.1 407.38 396.15 407.38 409.22 383.34 370.23 311.62 298.44 311.62"/><polygon class="cls-9" points="370.23 311.62 448.21 311.62 409.22 383.34 370.23 311.62"/><polygon class="cls-10" points="436.6 433.72 450.92 407.38 422.29 407.38 436.6 433.72"/><polygon class="cls-11" points="316.12 212.08 352.56 212.08 334.34 245.6 316.12 212.08"/><polygon class="cls-12" points="422.29 407.38 409.22 383.34 448.21 311.62 370.23 311.62 334.34 245.6 352.56 212.08 509.33 212.08 460.79 301.37 508.55 301.37 450.92 407.38 422.29 407.38"/><polygon class="cls-12" points="533.21 256.01 509.33 212.08 557.1 212.08 533.21 256.01"/><polygon class="cls-13" points="533.21 256.01 509.33 212.08 460.79 301.37 508.55 301.37 533.21 256.01"/><polygon class="cls-14" points="533.21 256.01 557.87 301.37 508.55 301.37 533.21 256.01"/><polygon class="cls-15" points="93.53 212.08 163.54 212.08 200.77 280.56 237.99 212.08 316.12 212.08 334.34 245.6 298.44 311.62 273.27 266.05 248.46 311.62 148.14 311.62 93.53 212.08"/><polygon class="cls-16" points="273.27 266.05 298.44 311.62 248.46 311.62 273.27 266.05"/><polygon class="cls-11" points="198.14 404.23 148.14 311.62 248.46 311.62 198.14 404.23"/><polygon class="cls-17" points="313.4 407.38 350.1 407.38 373.14 450.21 336.75 450.33 313.4 407.38"/><path class="cls-18" d="M57.36,73.51q-9.17,0-14.43,6.18T37.67,96.62q0,11,5,17.07t14.2,6.08a36.63,36.63,0,0,0,11.26-1.65v3.16A35,35,0,0,1,56,123.06q-10.26,0-16.16-7T34,96.55a32,32,0,0,1,2.82-13.8,21.08,21.08,0,0,1,8.1-9.22,23,23,0,0,1,12.28-3.25,28.21,28.21,0,0,1,12.76,2.81l-1.37,3.23A23.7,23.7,0,0,0,57.36,73.51Z" transform="translate(-33.97 -67.33)"/><path class="cls-18" d="M103.31,103.22q0,9.34-4.3,14.59t-11.86,5.25a14.78,14.78,0,0,1-8.4-2.42,15.31,15.31,0,0,1-5.57-7,26.47,26.47,0,0,1-1.93-10.47q0-9.34,4.3-14.56t11.8-5.21q7.47,0,11.71,5.29T103.31,103.22Zm-28.59,0q0,7.87,3.28,12.27a10.89,10.89,0,0,0,9.28,4.41,10.89,10.89,0,0,0,9.28-4.41q3.28-4.41,3.28-12.27T96.53,91a11,11,0,0,0-9.31-4.35A10.87,10.87,0,0,0,78,90.95Q74.71,95.29,74.71,103.22Z" transform="translate(-33.97 -67.33)"/><path class="cls-18" d="M114.59,122.36h-3.3V67.72h3.3Z" transform="translate(-33.97 -67.33)"/><path class="cls-18" d="M128,122.36h-3.3V67.72H128Z" transform="translate(-33.97 -67.33)"/><path class="cls-18" d="M154.19,123.06q-7.9,0-12.31-5.13t-4.42-14.36q0-9.13,4.27-14.63a13.8,13.8,0,0,1,11.5-5.5,12.15,12.15,0,0,1,10.1,4.71q3.7,4.71,3.7,12.78v2.81H140.92q.07,7.87,3.48,12t9.78,4.14a28.81,28.81,0,0,0,5.45-.46,31.82,31.82,0,0,0,5.95-2v3.16a25.53,25.53,0,0,1-5.67,1.91A29.91,29.91,0,0,1,154.19,123.06Zm-1-36.52a10.59,10.59,0,0,0-8.4,3.63q-3.17,3.63-3.7,10.48h22.39q0-6.64-2.73-10.38A8.85,8.85,0,0,0,153.22,86.54Z" transform="translate(-33.97 -67.33)"/><path class="cls-18" d="M204.59,84.19v2.42l-7.5.49a13.93,13.93,0,0,1,3,8.64,12,12,0,0,1-3.48,8.94,12.76,12.76,0,0,1-9.35,3.42,19.29,19.29,0,0,1-3.47-.21,8.73,8.73,0,0,0-3,2.56,5.36,5.36,0,0,0-1,3.13,2.94,2.94,0,0,0,1.32,2.67,8.57,8.57,0,0,0,4.42.84h6.33q5.9,0,9,2.51T204,127a10.74,10.74,0,0,1-4.65,9.32q-4.65,3.28-13.25,3.28-6.83,0-10.58-2.77a9.07,9.07,0,0,1-3.75-7.73,9.45,9.45,0,0,1,2.32-6.53,11.83,11.83,0,0,1,6.28-3.55,6.43,6.43,0,0,1-2.62-2.09,5.15,5.15,0,0,1-1-3.11q0-3.83,4.63-6.74a10.47,10.47,0,0,1-4.93-4.3,12.77,12.77,0,0,1-1.77-6.73,12.43,12.43,0,0,1,3.45-9.18q3.45-3.46,9.31-3.46a16.36,16.36,0,0,1,5.53.74Zm-29.33,44.64q0,7.87,11.1,7.87,14.26,0,14.26-9.59a5.63,5.63,0,0,0-2.23-5q-2.23-1.55-7.23-1.55h-5.93Q175.26,120.57,175.27,128.82ZM178,96.09a9.06,9.06,0,0,0,2.55,6.87,9.44,9.44,0,0,0,6.81,2.44q4.53,0,6.95-2.42t2.42-7q0-4.88-2.48-7.32a9.49,9.49,0,0,0-6.95-2.44,9,9,0,0,0-6.81,2.62A10.16,10.16,0,0,0,178,96.09Z" transform="translate(-33.97 -67.33)"/><path class="cls-18" d="M224.61,123.06q-7.9,0-12.31-5.13t-4.42-14.36q0-9.13,4.27-14.63a13.8,13.8,0,0,1,11.5-5.5,12.15,12.15,0,0,1,10.1,4.71q3.7,4.71,3.7,12.78v2.81H211.34q.07,7.87,3.48,12t9.78,4.14a28.81,28.81,0,0,0,5.45-.46,31.82,31.82,0,0,0,5.95-2v3.16a25.53,25.53,0,0,1-5.67,1.91A29.91,29.91,0,0,1,224.61,123.06Zm-1-36.52a10.59,10.59,0,0,0-8.4,3.63q-3.17,3.63-3.7,10.48h22.39q0-6.64-2.73-10.38A8.85,8.85,0,0,0,223.64,86.54Z" transform="translate(-33.97 -67.33)"/><path class="cls-18" d="M293.07,103.22q0,9.34-4.3,14.59t-11.86,5.25a14.78,14.78,0,0,1-8.4-2.42,15.31,15.31,0,0,1-5.57-7A26.47,26.47,0,0,1,261,103.22q0-9.34,4.3-14.56t11.8-5.21q7.47,0,11.71,5.29T293.07,103.22Zm-28.59,0q0,7.87,3.28,12.27a12,12,0,0,0,18.56,0q3.28-4.41,3.28-12.27T286.29,91A11,11,0,0,0,277,86.61a10.87,10.87,0,0,0-9.25,4.34Q264.48,95.29,264.48,103.22Z" transform="translate(-33.97 -67.33)"/><path class="cls-18" d="M315.2,87.21h-8.53v35.15h-3.3V87.21h-6.73v-2l6.73-1.3v-3q0-7,2.45-10.31t8-3.28a19.8,19.8,0,0,1,6,.95l-.77,3a16.87,16.87,0,0,0-5.3-.88q-3.87,0-5.48,2.41t-1.62,7.81v3.55h8.53Z" transform="translate(-33.97 -67.33)"/><path class="cls-18" d="M364.25,122.36H337.62V71h26.63v3.3H341V93.74H363V97H341v22h23.23Z" transform="translate(-33.97 -67.33)"/><path class="cls-18" d="M396.5,122.36V97.6q0-5.76-2.3-8.38t-7.13-2.62q-6.5,0-9.51,3.46t-3,11.22v21.07h-3.3V84.19H374l.63,5.23h.2q3.53-6,12.56-6,12.33,0,12.33,13.94v25Z" transform="translate(-33.97 -67.33)"/><path class="cls-18" d="M440.51,84.19v2.42l-7.5.49a13.93,13.93,0,0,1,3,8.64,12,12,0,0,1-3.48,8.94,12.76,12.76,0,0,1-9.35,3.42,19.29,19.29,0,0,1-3.47-.21,8.73,8.73,0,0,0-3,2.56,5.36,5.36,0,0,0-1,3.13,2.94,2.94,0,0,0,1.32,2.67,8.57,8.57,0,0,0,4.42.84h6.33q5.9,0,9,2.51t3.13,7.43a10.74,10.74,0,0,1-4.65,9.32q-4.65,3.28-13.25,3.28-6.83,0-10.58-2.77a9.07,9.07,0,0,1-3.75-7.73,9.45,9.45,0,0,1,2.32-6.53,11.83,11.83,0,0,1,6.28-3.55,6.43,6.43,0,0,1-2.62-2.09,5.15,5.15,0,0,1-1-3.11q0-3.83,4.63-6.74a10.47,10.47,0,0,1-4.93-4.3,12.77,12.77,0,0,1-1.77-6.73,12.43,12.43,0,0,1,3.45-9.18q3.45-3.46,9.31-3.46a16.36,16.36,0,0,1,5.53.74Zm-29.33,44.64q0,7.87,11.1,7.87,14.26,0,14.26-9.59a5.63,5.63,0,0,0-2.23-5q-2.23-1.55-7.23-1.55h-5.93Q411.18,120.57,411.18,128.82Zm2.77-32.73A9.06,9.06,0,0,0,416.5,103a9.44,9.44,0,0,0,6.81,2.44q4.53,0,6.95-2.42t2.42-7q0-4.88-2.48-7.32a9.49,9.49,0,0,0-6.95-2.44,9,9,0,0,0-6.81,2.62A10.16,10.16,0,0,0,413.95,96.09Z" transform="translate(-33.97 -67.33)"/><path class="cls-18" d="M446.45,73.58q0-3.37,2.1-3.37a1.84,1.84,0,0,1,1.62.88,4.49,4.49,0,0,1,.58,2.49,4.6,4.6,0,0,1-.58,2.49,1.82,1.82,0,0,1-1.62.91Q446.45,77,446.45,73.58Zm3.77,48.78h-3.3V84.19h3.3Z" transform="translate(-33.97 -67.33)"/><path class="cls-18" d="M487.88,122.36V97.6q0-5.76-2.3-8.38t-7.13-2.62q-6.5,0-9.51,3.46t-3,11.22v21.07h-3.3V84.19h2.8l.63,5.23h.2q3.53-6,12.56-6,12.33,0,12.33,13.94v25Z" transform="translate(-33.97 -67.33)"/><path class="cls-18" d="M517.3,123.06q-7.9,0-12.31-5.13t-4.41-14.36q0-9.13,4.27-14.63a13.8,13.8,0,0,1,11.5-5.5,12.15,12.15,0,0,1,10.1,4.71q3.7,4.71,3.7,12.78v2.81H504q.07,7.87,3.48,12t9.78,4.14a28.82,28.82,0,0,0,5.45-.46,31.84,31.84,0,0,0,5.95-2v3.16a25.54,25.54,0,0,1-5.67,1.91A29.91,29.91,0,0,1,517.3,123.06Zm-1-36.52a10.59,10.59,0,0,0-8.4,3.63q-3.17,3.63-3.7,10.48h22.39q0-6.64-2.73-10.38A8.85,8.85,0,0,0,516.33,86.54Z" transform="translate(-33.97 -67.33)"/><path class="cls-18" d="M554.55,123.06q-7.9,0-12.31-5.13t-4.41-14.36q0-9.13,4.27-14.63a13.8,13.8,0,0,1,11.5-5.5,12.15,12.15,0,0,1,10.1,4.71q3.7,4.71,3.7,12.78v2.81H541.29q.07,7.87,3.48,12t9.78,4.14a28.82,28.82,0,0,0,5.45-.46,31.84,31.84,0,0,0,5.95-2v3.16a25.54,25.54,0,0,1-5.67,1.91A29.91,29.91,0,0,1,554.55,123.06Zm-1-36.52a10.59,10.59,0,0,0-8.4,3.63q-3.17,3.63-3.7,10.48h22.39q0-6.64-2.73-10.38A8.85,8.85,0,0,0,553.59,86.54Z" transform="translate(-33.97 -67.33)"/><path class="cls-18" d="M590.62,83.45a27,27,0,0,1,4.93.49l-.63,3.34a18.39,18.39,0,0,0-4.7-.6,9,9,0,0,0-7.6,4.14,17.53,17.53,0,0,0-3,10.47v21.07h-3.3V84.19h2.8l.33,6.88h.23a16,16,0,0,1,4.77-5.92A10.74,10.74,0,0,1,590.62,83.45Z" transform="translate(-33.97 -67.33)"/><path class="cls-18" d="M600.75,73.58q0-3.37,2.1-3.37a1.84,1.84,0,0,1,1.62.88,4.49,4.49,0,0,1,.58,2.49,4.6,4.6,0,0,1-.58,2.49,1.82,1.82,0,0,1-1.62.91Q600.74,77,600.75,73.58Zm3.77,48.78h-3.3V84.19h3.3Z" transform="translate(-33.97 -67.33)"/><path class="cls-18" d="M640.88,122.36V97.6q0-5.76-2.3-8.38t-7.13-2.62q-6.5,0-9.51,3.46t-3,11.22v21.07h-3.3V84.19h2.8l.63,5.23h.2q3.53-6,12.56-6,12.33,0,12.33,13.94v25Z" transform="translate(-33.97 -67.33)"/><path class="cls-18" d="M684.13,84.19v2.42l-7.5.49a13.93,13.93,0,0,1,3,8.64,12,12,0,0,1-3.48,8.94,12.76,12.76,0,0,1-9.35,3.42,19.29,19.29,0,0,1-3.47-.21,8.73,8.73,0,0,0-3,2.56,5.35,5.35,0,0,0-1,3.13,2.94,2.94,0,0,0,1.32,2.67,8.58,8.58,0,0,0,4.42.84h6.33q5.9,0,9,2.51t3.13,7.43a10.74,10.74,0,0,1-4.65,9.32q-4.65,3.28-13.25,3.28-6.83,0-10.58-2.77a9.07,9.07,0,0,1-3.75-7.73,9.45,9.45,0,0,1,2.32-6.53,11.83,11.83,0,0,1,6.28-3.55,6.43,6.43,0,0,1-2.62-2.09,5.15,5.15,0,0,1-1-3.11q0-3.83,4.63-6.74a10.47,10.47,0,0,1-4.93-4.3,12.77,12.77,0,0,1-1.77-6.73,12.44,12.44,0,0,1,3.45-9.18q3.45-3.46,9.31-3.46a16.36,16.36,0,0,1,5.53.74Zm-29.33,44.64q0,7.87,11.1,7.87,14.26,0,14.26-9.59a5.63,5.63,0,0,0-2.23-5q-2.23-1.55-7.23-1.55h-5.93Q654.81,120.57,654.81,128.82Zm2.77-32.73a9.06,9.06,0,0,0,2.55,6.87,9.44,9.44,0,0,0,6.82,2.44q4.53,0,6.95-2.42t2.42-7q0-4.88-2.48-7.32a9.49,9.49,0,0,0-6.95-2.44,9,9,0,0,0-6.81,2.62A10.16,10.16,0,0,0,657.57,96.09Z" transform="translate(-33.97 -67.33)"/><path class="cls-18" d="M628.22,172.23a9,9,0,0,1,1.21-4.54,8.89,8.89,0,0,1,3.33-3.34,9.12,9.12,0,1,1-4.54,7.89Zm1.72,0a7.41,7.41,0,1,0,1-3.68A7.26,7.26,0,0,0,629.94,172.23ZM641,170.13a2.81,2.81,0,0,1-1.73,2.82l2.87,4.84h-3.08l-2.16-4.09h-.57v4.09h-2.77V166.7h3.2a5,5,0,0,1,3.22.85A3.16,3.16,0,0,1,641,170.13Zm-4.66,1.54h.38a1.26,1.26,0,0,0,1.49-1.49,1.51,1.51,0,0,0-.34-1.11,1.67,1.67,0,0,0-1.17-.33h-.35Z" transform="translate(-33.97 -67.33)"/><path class="cls-14" d="M549.46,606l5.81-16.63h8l0,1H561v22.72h2.29v1h-9.64v-1H556V590.65h-.07l-8.18,23.44h-1l-8.39-23.86h-.07v19.9c0,2.84.74,3,2.63,3h.11v1H535v-1c2,0,2.38-1.17,2.38-2.68v-20H535v-1h8.81Z" transform="translate(-33.97 -67.33)"/><path class="cls-14" d="M568.88,604.65v-2.36c0-2.35,1-3.09,2.21-3.09,1.69,0,2.21,1.16,2.21,3.09v2.36Zm0,1h9.69c0-3.79-3.55-7.44-7.23-7.37a8,8,0,0,0-7.72,8.32,7.69,7.69,0,0,0,7.83,8c4.32,0,6.46-2.67,7.23-6.14h-1c-.77,3.26-2.48,5.12-5.22,5.12-3.26,0-3.61-2.56-3.61-4.94Z" transform="translate(-33.97 -67.33)"/><polygon class="cls-14" points="544.65 522.12 544.65 523.01 547.08 523.01 547.08 545.77 544.65 545.77 544.65 546.76 554.34 546.76 554.34 545.77 551.92 545.77 551.92 522.12 544.65 522.12"/><polygon class="cls-14" points="555.02 522.12 555.02 523.01 557.44 523.01 557.44 545.77 555.02 545.77 555.02 546.76 564.7 546.76 564.7 545.77 562.28 545.77 562.28 522.12 555.02 522.12"/><path class="cls-14" d="M609.81,609.85c0,2.63-1.09,3.72-2.88,3.72s-2.88-1.09-2.88-3.72v-6.91c0-2.63,1.09-3.72,2.88-3.72s2.88,1.09,2.88,3.72Zm5.48-3.47a8.35,8.35,0,1,0-8.35,8.14,8,8,0,0,0,8.35-8.14" transform="translate(-33.97 -67.33)"/><path class="cls-14" d="M622.53,598.66v2.84a6.38,6.38,0,0,1,5.69-3.38c3.33,0,4.95,1.77,4.95,5.56v9.47h2.42v.95h-9.26v-.95h2V602.37c0-2.36-.65-2.79-1.92-2.79-1.91,0-3.57,3-3.87,4.31v9.26h2.07v.95h-9.33v-.95h2.42V599.6h-2.42v-.95Z" transform="translate(-33.97 -67.33)"/><polygon class="cls-14" points="616.93 500 616.93 514.53 619.35 514.53 619.35 515.49 609.66 515.49 609.66 514.53 612.08 514.53 612.08 501.02 610.2 501.02 610.2 500 616.93 500"/><path class="cls-14" d="M555.28,558h-.87c0,.75-.43,1.07-1.18,1.07-1.49,0-3.68-1.82-6.24-1.82-7.3,0-11.71,7.19-11.71,13.52s4.2,12.66,11.24,12.66c4.27,0,5.87-2,7-2,.75,0,.89.66.89,1.46h1v-8.72h-1l-.21,1.21c-.5,2.88-2.73,7.14-7.32,7.14-4.06,0-5.62-3.51-5.62-12.15,0-9.08,2.14-12.13,5.73-12.13,4.06,0,6.85,4.55,7.42,8.18h.87Z" transform="translate(-33.97 -67.33)"/><path class="cls-14" d="M567.75,578.65c-.07,1.86-1.12,3.38-2.77,3.38-2.39,0-2.49-2-2.49-3.55,0-1.86.21-3.09,2.49-3.33l2.77-.28Zm6.41,1.16c0,.91-.6,2-1,2-.63,0-.77-.67-.77-1.75v-8.07c0-4-3.76-5-7.37-5s-6.07,1.72-6.07,3.68a2.12,2.12,0,0,0,2.28,2.28,2,2,0,0,0,2.14-2.11c0-1.78-1.85-1.81-1.85-1.85,0-.8,2.06-1.05,3.26-1.05,2.63,0,3,1,3,3.07v2.95l-3.44.28c-3.2.25-6.67,1.09-6.67,4.74,0,3.05,2.74,4.28,5.44,4.28,1.37,0,3.79-.53,4.7-2.21a3.6,3.6,0,0,0,3.51,2.21c2.28,0,3.76-1.37,3.76-3.44Z" transform="translate(-33.97 -67.33)"/><path class="cls-14" d="M616.38,573.37V571c0-2.35,1-3.09,2.21-3.09,1.69,0,2.21,1.16,2.21,3.09v2.36Zm0,1h9.69c0-3.79-3.54-7.44-7.23-7.37a8,8,0,0,0-7.72,8.32,7.69,7.69,0,0,0,7.83,8c4.32,0,6.46-2.67,7.23-6.14h-1c-.77,3.26-2.48,5.12-5.22,5.12-3.26,0-3.61-2.56-3.61-4.94Z" transform="translate(-33.97 -67.33)"/><path class="cls-14" d="M658.75,573.37V571c0-2.35,1-3.09,2.21-3.09s2.21.73,2.21,3.09v2.36Zm0,1h9.69c0-3.79-3.54-7.44-7.23-7.37a8,8,0,0,0-7.72,8.32,7.69,7.69,0,0,0,7.83,8c4.32,0,6.46-2.67,7.23-6.14h-1c-.77,3.26-2.48,5.12-5.22,5.12-3.26,0-3.61-2.56-3.61-4.94Z" transform="translate(-33.97 -67.33)"/><path class="cls-14" d="M608.66,581.87V572.4c0-3.79-1.61-5.56-4.95-5.56a6.38,6.38,0,0,0-5.69,3.39v-2.84h-7.27v.94h2.42v13.55h-2.42v.95h9.34v-.95H598v-9.26c.3-1.3,2-4.31,3.87-4.31,1.28,0,1.92.44,1.92,2.8v10.77h-2v.95h9.26v-.95Z" transform="translate(-33.97 -67.33)"/><path class="cls-14" d="M646.07,562.53a2.42,2.42,0,1,0,2.42-2.42,2.41,2.41,0,0,0-2.42,2.42" transform="translate(-33.97 -67.33)"/><path class="cls-14" d="M587.23,566.8a5,5,0,0,0-4.63,3.3h-.07v-2.67h-7.19v1h2.42v13.5h-2.42v1h10.49v-1h-3.23v-7.56c0-2.26.59-4.57,2.08-5.84a.29.29,0,0,1,.3,0,.29.29,0,0,1,.16.3h0a3.39,3.39,0,0,0-.19,1,2.27,2.27,0,0,0,2.39,2.28A2.53,2.53,0,0,0,590,569.5a2.56,2.56,0,0,0-2.77-2.7" transform="translate(-33.97 -67.33)"/><path class="cls-14" d="M640,567.94c.07,0,.16-.06.21,0a.15.15,0,0,1,0,.19h0a1.51,1.51,0,0,0-.13,1.29,1.49,1.49,0,0,0,1.06,1,1.52,1.52,0,0,0,1.88-1.47,1.64,1.64,0,0,0-.83-1.37,2.86,2.86,0,0,0-1.55-.41,4.16,4.16,0,0,0-2.58,1.1h0a4.91,4.91,0,0,0-.5-.33,7.55,7.55,0,0,0-3.89-.94c-2.95,0-6.11,1.93-6.11,5.12a4.55,4.55,0,0,0,2.91,4.28v.07a3.84,3.84,0,0,0-3.51,4,3.33,3.33,0,0,0,2.28,3.51v.07a4.05,4.05,0,0,0-3,3.47c0,2.6,3.05,4.6,6.95,4.6,4.88,0,8.07-3.3,8.07-7.58,0-3.4-1.69-4.95-5.12-4.88h-5.83c-.88,0-1.46,0-1.46-1s1.35-1.82,2.68-1.82a2.71,2.71,0,0,1,.71.21,4.5,4.5,0,0,0,1.44.21c3,0,6.25-1.72,6.25-5.05a5.21,5.21,0,0,0-1.28-3.32.12.12,0,0,1,0-.18,7.31,7.31,0,0,1,.91-.6,2.05,2.05,0,0,1,.42-.19Zm-4.66,16.15c3.51,0,4.44.15,4.44,2.29,0,2.56-3.14,4.91-6.68,4.91-3.16,0-4.67-1.93-4.74-3.62a5.07,5.07,0,0,1,1.71-3.58Zm.59-12c0,4.08-.95,4.21-2.21,4.21s-2.14-.27-2.14-4.32c0-2.84.32-4.05,2.14-4.05,1.65,0,2.17.11,2.21,4.15Z" transform="translate(-33.97 -67.33)"/><polygon class="cls-14" points="620.4 561.43 620.4 575.96 622.82 575.96 622.82 576.92 613.14 576.92 613.14 575.96 615.56 575.96 615.56 562.45 613.14 562.45 613.14 561.43 620.4 561.43"/><path class="cls-14" d="M609.19,634.8v-2.36c0-2.35,1-3.09,2.21-3.09,1.69,0,2.21,1.16,2.21,3.09v2.36Zm0,1h9.69c0-3.79-3.54-7.44-7.23-7.37a8,8,0,0,0-7.72,8.32,7.69,7.69,0,0,0,7.83,8c4.32,0,6.46-2.67,7.23-6.14h-1c-.77,3.26-2.48,5.12-5.22,5.12-3.26,0-3.61-2.56-3.61-4.94Z" transform="translate(-33.97 -67.33)"/><path class="cls-14" d="M535,620.46h2.45v15.59c0,5.44,3.76,8.74,9.47,8.74,6.46,0,9.26-3.4,9.26-8.56V622.9c0-2,.56-2.44,1.82-2.44h.71v-.94h-6.17v.94H553c1.79,0,2,.54,2,2.58v13.54c0,4.77-3,6.95-6,6.95-5.12,0-6.14-3.44-6.45-7.93V620.46h2.3v-.94H535Z" transform="translate(-33.97 -67.33)"/><path class="cls-14" d="M595.79,644.65h.95l5.2-12.28c1-2.29,1.61-2.58,2.42-2.62h.31v-1H599.2v1h.66c1,0,1.48-.07,1.48.85a5.71,5.71,0,0,1-.59,2.13l-2.39,5.62-3.82-8.59h1.95v-1h-8.81v1h1.65Z" transform="translate(-33.97 -67.33)"/><path class="cls-14" d="M634.89,644.65h.83a1.12,1.12,0,0,1,1.24-.84c.91,0,2,.84,4,.84a5.73,5.73,0,0,0,5.62-5.75c0-4.28-2.95-4.6-6.7-5.12-2-.28-3.08-.56-3.08-2.11s1.44-2.34,3.33-2.34c2.63,0,3.65,1.74,4.53,4h.83v-5h-.79c0,.42-.36.77-1,.77-1.12,0-2-.77-3.65-.77a5.22,5.22,0,0,0-5.23,5.23c0,4.53,3.44,4.92,6.11,5.23s3.44.48,3.44,2.09c0,1.86-1.54,2.7-3.44,2.7-2.67,0-4.5-2.3-5.13-4.87h-.83Z" transform="translate(-33.97 -67.33)"/><polygon class="cls-14" points="552.43 561.43 552.43 575.96 554.86 575.96 554.86 576.92 545.17 576.92 545.17 575.96 547.59 575.96 547.59 562.45 545.17 562.45 545.17 561.43 552.43 561.43"/><path class="cls-14" d="M581.56,623.92A2.42,2.42,0,1,0,584,621.5a2.41,2.41,0,0,0-2.42,2.42" transform="translate(-33.97 -67.33)"/><path class="cls-14" d="M649.52,623.92a2.42,2.42,0,1,0,2.42-2.42,2.41,2.41,0,0,0-2.42,2.42" transform="translate(-33.97 -67.33)"/><path class="cls-14" d="M576,643.3v-9.47c0-3.79-1.61-5.56-4.95-5.56a6.37,6.37,0,0,0-5.68,3.39h0v-2.84h-7.26v.95h2.42V643.3h-2.42v.95h9.34v-.95H565.4V634c.3-1.3,2-4.31,3.87-4.31,1.27,0,1.92.44,1.92,2.79V643.3h-2v.95h9.26v-.95Z" transform="translate(-33.97 -67.33)"/><path class="cls-14" d="M677.92,628.77v1c1.5,0,2.15.14,2.15.81a5.64,5.64,0,0,1-.6,2.13l-2.38,5.62-3.8-8.56h2v-1h-12.1v-7.53h-.63c0,3.72-2.53,7.54-6.07,7.54v1h1.86v10.86a3.84,3.84,0,0,0,3.86,4,5,5,0,0,0,4.67-2.7l-.75-.41c-.42.63-1,1.47-1.86,1.47-.7,0-1.07-.5-1.07-1.65V629.79h4.89l6.41,14.79-2.22,5.23h0a.29.29,0,0,1-.54,0h0a2.41,2.41,0,1,0-3.41,2.81h0l.08,0,.14.07a2.46,2.46,0,0,0,.88.19c2,.17,3.08-1.33,3.8-2.86.16-.35.31-.7.45-1,.31-.74.85-2,1.48-3.51l.61-1.43h0l4.94-11.67c1-2.29,1.46-2.59,2.73-2.59h0v-1Z" transform="translate(-33.97 -67.33)"/><path class="cls-14" d="M631.17,628.13a5,5,0,0,0-4.63,3.3h-.07v-2.67h-7.19v1h2.42v13.5h-2.42v1h10.49v-1h-3.23v-7.56c0-2.26.59-4.56,2.07-5.84a.3.3,0,0,1,.3,0,.29.29,0,0,1,.16.3h0a3.47,3.47,0,0,0-.18,1,2.27,2.27,0,0,0,2.39,2.28,2.54,2.54,0,0,0,2.67-2.56,2.56,2.56,0,0,0-2.77-2.7" transform="translate(-33.97 -67.33)"/></svg>